<?xml version="1.0" encoding="utf-8"?>
<!-- Generator: Adobe Illustrator 14.0.0, SVG Export Plug-In . SVG Version: 6.00 Build 43363)  -->
<!DOCTYPE svg PUBLIC "-//W3C//DTD SVG 1.1//EN" "http://www.w3.org/Graphics/SVG/1.1/DTD/svg11.dtd">
<svg version="1.1" id="Capa_1" xmlns="http://www.w3.org/2000/svg" xmlns:xlink="http://www.w3.org/1999/xlink" x="0px" y="0px"
	 width="30.922px" height="30.922px" viewBox="0 0 30.922 30.922" enable-background="new 0 0 30.922 30.922" xml:space="preserve">
<g>
	<path fill="#FFFFFF" d="M21.237,17.876c-0.202-0.421-0.762-1.271-1.108-2.052c-0.415-0.937-0.604-1.785-0.604-1.785
		s0.875-0.026,0.862-0.21c-0.011-0.184-0.135-0.893-0.135-0.893s-0.055-1.279-0.485-1.251c-0.432,0.027-0.627,0.047-0.627,0.047
		s-1.414-3.795-1.843-3.879c-1.155-0.227-2.355,0.837-3.001,1.451c-0.647,0.613-0.922,1.896-0.922,1.896s-0.991-0.381-1.693,0.978
		c-0.229,0.443-0.837,1.926-0.837,1.926s-0.726,0.022-0.818,0.219c-0.093,0.196-0.27,0.528-0.136,0.569
		c0.132,0.041,0.433,0.072,0.486,0.314c0.052,0.242-1.457,3.438-1.978,4.666c-0.521,1.229,0.181,3.156,2.127,3.23
		c1.946,0.075,3.491-2.158,3.551-2.642c0.061-0.483-0.105-1.129-0.151-1.617c-0.046-0.486,0.562-4.618,0.604-4.968
		c0.043-0.35,0.498-0.711,0.498-0.711s0.983,1.259,1.053,1.934c0.067,0.674,0.188,1.502,0.337,2.514
		c0.149,1.013,1.064,1.971,2.535,2.997c1.472,1.026,2.268,1.328,2.708,1.305c0.441-0.025,1.055-0.587,1.034-1.005
		C22.67,20.494,21.68,18.8,21.237,17.876z M13.289,18.18c-0.121,0.422-0.453,0.846-1.147,1.012c-0.694,0.165-1.691,0.045-2.099,0
		c-0.408-0.046-0.56-0.343-0.453-0.604c0.107-0.262,1.39-3.413,1.39-3.413l2.672,0.182C13.651,15.356,13.409,17.756,13.289,18.18z
		 M12.564,14.238c-1.073,0-1.299-0.15-1.359-0.393c-0.061-0.241,0.755-1.827,1.103-2.159c0.347-0.333,0.846-0.333,0.846-0.333
		s-0.312,0.736-0.196,0.906c0.114,0.17,0.574,0.876,1.192,1.585C14.059,14.193,13.636,14.238,12.564,14.238z M19.428,12.645
		l0.438,0.228h-0.438V12.645z M16.942,10.72c-0.383-1.136-0.045-2.386,0.212-2.688c0.258-0.302,1.961,4.044,1.979,4.244
		c0.018,0.198,0.105,0.619,0.105,0.619h-0.906c0,0,0.045-0.331-0.016-0.408C18.258,12.411,17.41,12.109,16.942,10.72z
		 M19.872,18.212c-0.344-0.155-0.665-0.425-1.224-1.588c-0.559-1.164-0.362-2.627-0.362-2.627h1.027c0,0,0.177,0.884,0.544,1.737
		c0.403,0.942,1.001,1.871,1.058,2.069C21.02,18.18,20.732,18.602,19.872,18.212z"/>
</g>
</svg>
