<?xml version="1.0" encoding="utf-8"?>
<!-- Generator: Adobe Illustrator 14.0.0, SVG Export Plug-In . SVG Version: 6.00 Build 43363)  -->
<!DOCTYPE svg PUBLIC "-//W3C//DTD SVG 1.1//EN" "http://www.w3.org/Graphics/SVG/1.1/DTD/svg11.dtd">
<svg version="1.1" id="Layer_1" xmlns="http://www.w3.org/2000/svg" xmlns:xlink="http://www.w3.org/1999/xlink" x="0px" y="0px"
	 width="850px" height="1000px" viewBox="0 0 850 1000" enable-background="new 0 0 850 1000" xml:space="preserve">
<path fill="#FFFFFF" d="M233.333,269.999c-12.046,0-25.556,12.778-25.556,25.556v178.89c0,56.632,25.556,127.779,127.778,127.779
	c9.166,0,17.536-0.436,25.556-1.585v-75.07H258.888c0,0,12.778-51.111,76.667-51.111c12.778,0,17.8,1.891,25.556,4.792v-55.903
	c0-23.427,9.335-43,25.556-51.111c25.556-12.778,35.873-7.618,51.111,0c25.556,12.778,25.556,12.778,25.556,12.778v-89.445
	c0-12.778-13.508-25.556-25.556-25.556c-25.555,0-51.111,25.556-102.222,25.556s-76.667-25.556-102.223-25.556V269.999z
	 M278.055,359.444c17.643,0,31.944,14.301,31.944,31.944s-14.302,31.945-31.944,31.945s-31.945-14.301-31.945-31.945
	S260.413,359.444,278.055,359.444z M412.222,397.778c-12.046,0-25.556,12.778-25.556,25.556v178.89
	c0,56.632,25.556,127.778,127.778,127.778c102.223,0,127.778-71.146,127.778-127.778v-178.89c0-12.778-13.508-25.556-25.556-25.556
	c-25.556,0-51.111,25.556-102.223,25.556S437.777,397.778,412.222,397.778z M456.944,487.223c17.643,0,31.944,14.301,31.944,31.945
	c0,17.644-14.302,31.944-31.944,31.944S425,536.812,425,519.168S439.302,487.223,456.944,487.223z M571.945,487.223
	c17.643,0,31.944,14.301,31.944,31.945c0,17.644-14.302,31.944-31.944,31.944S540,536.812,540,519.168
	S554.303,487.223,571.945,487.223z M437.777,627.779h153.334c0,0-12.777,51.111-76.667,51.111
	C450.556,678.891,437.777,627.779,437.777,627.779z"/>
</svg>
